<?xml version="1.0" encoding="UTF-8" standalone="no"?>
<!-- Created with Inkscape (http://www.inkscape.org/) -->

<svg
   xmlns:dc="http://purl.org/dc/elements/1.1/"
   xmlns:cc="http://creativecommons.org/ns#"
   xmlns:rdf="http://www.w3.org/1999/02/22-rdf-syntax-ns#"
   xmlns:svg="http://www.w3.org/2000/svg"
   xmlns="http://www.w3.org/2000/svg"
   xmlns:xlink="http://www.w3.org/1999/xlink"
   xmlns:sodipodi="http://sodipodi.sourceforge.net/DTD/sodipodi-0.dtd"
   xmlns:inkscape="http://www.inkscape.org/namespaces/inkscape"
   width="63.000004mm"
   height="88mm"
   viewBox="0 0 63.000004 88"
   version="1.1"
   id="svg8936"
   inkscape:version="0.92.5 (2060ec1f9f, 2020-04-08)"
   sodipodi:docname="back.svg">
  <defs
     id="defs8930">
    <pattern
       patternTransform="matrix(0.5110943,0.55752546,-4.2606771,3.9058447,-4587.2173,7265.197)"
       id="pattern23711-2-8"
       xlink:href="#pattern23627-5-5"
       inkscape:collect="always" />
    <pattern
       patternTransform="matrix(0.13522704,0.14751195,-1.1273042,1.0334214,-1213.7013,1922.2501)"
       id="pattern23627-5-5"
       xlink:href="#pattern23605-9-7"
       inkscape:collect="always" />
    <pattern
       patternTransform="matrix(0.30118304,-0.45387313,0.45387313,0.30118304,-1268.9118,1919.5169)"
       id="pattern23605-9-7"
       xlink:href="#Strips1_5white-0-4"
       inkscape:collect="always" />
    <pattern
       inkscape:collect="always"
       patternUnits="userSpaceOnUse"
       width="6"
       height="1"
       patternTransform="translate(0,0) scale(10,10)"
       id="Strips1_5white-0-4"
       inkscape:stockid="Stripes 1:5 white">
      <rect
         style="fill:white;stroke:none"
         x="0"
         y="-0.5"
         width="1"
         height="2"
         id="rect18414-8-9" />
    </pattern>
  </defs>
  <sodipodi:namedview
     id="base"
     pagecolor="#ffffff"
     bordercolor="#666666"
     borderopacity="1.0"
     inkscape:pageopacity="0.0"
     inkscape:pageshadow="2"
     inkscape:zoom="0.35"
     inkscape:cx="-143.80217"
     inkscape:cy="60.584631"
     inkscape:document-units="mm"
     inkscape:current-layer="layer1"
     showgrid="false"
     inkscape:window-width="1848"
     inkscape:window-height="1016"
     inkscape:window-x="72"
     inkscape:window-y="27"
     inkscape:window-maximized="1" />
  <metadata
     id="metadata8933">
    <rdf:RDF>
      <cc:Work
         rdf:about="">
        <dc:format>image/svg+xml</dc:format>
        <dc:type
           rdf:resource="http://purl.org/dc/dcmitype/StillImage" />
        <dc:title></dc:title>
      </cc:Work>
    </rdf:RDF>
  </metadata>
  <g
     inkscape:label="Layer 1"
     inkscape:groupmode="layer"
     id="layer1"
     transform="translate(-52.410753,-76.863017)">
    <g
       style="display:inline"
       transform="translate(1951.5348,-2777.1483)"
       id="g30700">
      <g
         transform="translate(-3872.7324,2778.5989)"
         style="display:inline"
         id="g15995-2-6">
        <rect
           rx="3.0134995"
           ry="3.0096521"
           y="-127.98602"
           x="175.83595"
           height="88"
           width="63.000004"
           id="rect13323-9-1-7"
           style="display:inline;fill:#ffffff;fill-opacity:1;stroke:none;stroke-width:0.26547301;stroke-miterlimit:4;stroke-dasharray:none;stroke-opacity:1"
           transform="translate(1797.7724,203.39844)" />
        <rect
           inkscape:tile-y0="-119.10042"
           inkscape:tile-x0="158.93863"
           y="80.214256"
           x="1978.1689"
           height="78.396317"
           width="53.878986"
           id="use15816-3-5"
           style="display:inline;opacity:1;fill:#05d1b0;fill-opacity:1;stroke:#05d1b0" />
      </g>
      <g
         transform="translate(70.241902,2918.2216)"
         id="g26240">
        <rect
           inkscape:label="WHITE INNER BORDER"
           y="-58.268349"
           x="-1963.6633"
           height="76.116035"
           width="51.59428"
           id="rect26218"
           style="display:inline;opacity:1;fill:none;fill-opacity:1;stroke:#fffbfb;stroke-width:0.44404101;stroke-miterlimit:4;stroke-dasharray:none;stroke-opacity:1" />
        <g
           id="g26238"
           transform="translate(-701.90311,-1957.2153)">
          <rect
             y="1909.6683"
             x="-1251.0659"
             height="54.673412"
             width="30.205402"
             id="rect26220"
             style="display:inline;opacity:1;fill:none;fill-opacity:1;stroke:#fffbfb;stroke-width:0.21821401;stroke-linejoin:miter;stroke-miterlimit:4;stroke-dasharray:none;stroke-opacity:1"
             inkscape:label="WHITE INNER BORDER2" />
          <path
             transform="scale(0.26458333)"
             id="path26222"
             d="m -4725.7949,7220.2539 v 201.4199 h 108.8769 v -201.4199 z m 54.4394,3.5586 a 44.922102,44.871114 0 0 1 44.9219,44.8711 44.922102,44.871114 0 0 1 -5.209,20.9121 50.634364,50.576899 0 0 1 10.9199,31.3672 50.634364,50.576899 0 0 1 -10.9453,31.3223 44.922103,44.871115 0 0 1 5.2344,20.9589 44.922103,44.871115 0 0 1 -44.9219,44.8711 44.922103,44.871115 0 0 1 -44.9238,-44.8711 44.922103,44.871115 0 0 1 5.209,-20.9121 50.634364,50.576899 0 0 1 -10.9199,-31.3691 50.634364,50.576899 0 0 1 10.9453,-31.3203 44.922102,44.871114 0 0 1 -5.2344,-20.959 44.922102,44.871114 0 0 1 44.9238,-44.8711 z"
             style="display:inline;opacity:1;fill:url(#pattern23711-2-8);fill-opacity:1;stroke:#fffbfb;stroke-width:0.82474703;stroke-linejoin:miter;stroke-miterlimit:4;stroke-dasharray:none;stroke-opacity:1"
             inkscape:connector-curvature="0" />
          <rect
             inkscape:label="WHITE INNER BORDER"
             style="display:inline;opacity:1;fill:none;fill-opacity:1;stroke:#fffbfb;stroke-width:0.21821401;stroke-miterlimit:4;stroke-dasharray:none;stroke-opacity:1"
             id="rect26224"
             width="31.5117"
             height="56.035736"
             x="-1251.719"
             y="1908.9872"
             rx="0.31737459"
             ry="0.31696939" />
          <path
             inkscape:connector-curvature="0"
             style="display:inline;opacity:0.98999999;fill:none;fill-opacity:1;stroke:#fffbfb;stroke-width:0.44830599;stroke-miterlimit:4;stroke-dasharray:none;stroke-opacity:1"
             d="m -1246.4669,1945.2889 a 13.38376,13.366672 0 0 1 -2.8801,-8.2839 13.38376,13.366672 0 0 1 2.8757,-8.2783"
             id="path26226" />
          <path
             inkscape:connector-curvature="0"
             style="display:inline;opacity:0.98999999;fill:none;fill-opacity:1;stroke:#fffbfb;stroke-width:0.44830599;stroke-miterlimit:4;stroke-dasharray:none;stroke-opacity:1"
             d="m -1225.4596,1928.7211 a 13.38376,13.366672 0 0 1 2.8802,8.2839 v 0 a 13.38376,13.366672 0 0 1 -2.8758,8.2784"
             id="path26228" />
          <path
             inkscape:connector-curvature="0"
             style="display:inline;opacity:0.98999999;fill:none;fill-opacity:1;stroke:#fffbfb;stroke-width:0.213259;stroke-miterlimit:4;stroke-dasharray:none;stroke-opacity:1"
             d="m -1246.1118,1944.6637 a 12.719969,12.703729 0 0 1 -2.5714,-7.6587 12.719969,12.703729 0 0 1 2.5734,-7.6612"
             id="path26230" />
          <path
             inkscape:connector-curvature="0"
             style="display:inline;opacity:0.98999999;fill:none;fill-opacity:1;stroke:#fffbfb;stroke-width:0.213259;stroke-miterlimit:4;stroke-dasharray:none;stroke-opacity:1"
             d="m -1225.8144,1929.3468 a 12.719969,12.703729 0 0 1 2.5711,7.6582 v 0 a 12.719969,12.703729 0 0 1 -2.5728,7.6605"
             id="path26232" />
          <ellipse
             cy="-1950.8373"
             cx="-1235.963"
             id="ellipse26234"
             style="display:inline;opacity:0.98999999;fill:none;fill-opacity:1;stroke:#fffbfb;stroke-width:0.398249;stroke-miterlimit:4;stroke-dasharray:none;stroke-opacity:1"
             transform="scale(1,-1)"
             inkscape:label="BOTTOM CIRCLE"
             rx="11.88933"
             ry="11.87415" />
          <ellipse
             inkscape:label="TOP CIRCLE"
             transform="scale(-1,1)"
             style="display:inline;opacity:1;fill:none;fill-opacity:1;stroke:#ffffff;stroke-width:0.398249;stroke-miterlimit:4;stroke-dasharray:none;stroke-opacity:1"
             id="ellipse26236"
             cx="1235.963"
             cy="1923.1726"
             rx="11.88933"
             ry="11.87415" />
        </g>
      </g>
    </g>
  </g>
</svg>
